<?xml version="1.0" standalone="no"?>
<!DOCTYPE svg PUBLIC "-//W3C//DTD SVG 20010904//EN"
 "http://www.w3.org/TR/2001/REC-SVG-20010904/DTD/svg10.dtd">
<svg version="1.0" xmlns="http://www.w3.org/2000/svg"
 width="562.000000pt" height="495.000000pt" viewBox="0 0 562.000000 495.000000"
 preserveAspectRatio="xMidYMid meet">

<g transform="translate(0.000000,495.000000) scale(0.100000,-0.100000)"
fill="#000000" stroke="none">
<path d="M2130 4895 c-30 -30 -88 -79 -129 -108 -42 -29 -129 -91 -194 -137
-174 -124 -225 -184 -307 -360 -4 -8 -30 -20 -57 -26 -137 -31 -241 -130 -353
-339 -56 -104 -89 -154 -130 -194 l-55 -53 50 -41 c175 -144 200 -203 250
-594 13 -109 32 -236 40 -283 9 -47 19 -100 22 -117 l6 -33 -60 0 c-32 0 -66
6 -75 13 -9 6 -38 64 -64 127 -53 129 -67 151 -86 132 -7 -7 -29 -72 -49 -145
-40 -147 -31 -137 -154 -183 -38 -15 -90 -39 -115 -54 -31 -20 -65 -30 -111
-35 -170 -17 -289 -139 -289 -296 l0 -68 -61 -47 c-155 -119 -230 -311 -185
-468 22 -73 87 -143 162 -171 37 -14 61 -33 85 -64 51 -67 114 -95 219 -96 47
-1 94 -6 105 -12 67 -36 164 -22 225 33 48 43 67 114 51 185 -14 61 -15 59 26
59 47 0 117 34 143 69 75 106 34 250 -95 336 -43 28 -55 41 -49 53 26 63 35
104 34 161 -1 36 -1 71 -1 78 2 23 75 38 191 38 191 -1 301 -49 410 -181 68
-82 68 -87 1 -99 -20 -3 -77 -26 -127 -50 -68 -33 -107 -60 -160 -112 -38 -37
-79 -82 -92 -100 -20 -28 -20 -33 -7 -46 17 -17 158 -70 265 -99 109 -29 332
-36 437 -13 72 16 236 77 257 96 22 19 54 10 194 -58 39 -19 72 -39 72 -44 0
-5 -29 -24 -65 -41 -54 -27 -69 -30 -83 -20 -83 58 -168 74 -237 43 -26 -12
-64 -21 -84 -21 -20 0 -55 -11 -80 -25 -28 -16 -58 -25 -88 -25 -116 0 -218
-61 -242 -145 -39 -135 -53 -353 -30 -452 19 -81 51 -187 65 -214 l13 -26 -62
-13 c-128 -25 -247 -71 -247 -95 0 -8 -6 -24 -12 -36 -11 -17 -10 -22 5 -33 9
-7 17 -22 17 -33 0 -29 19 -43 45 -33 26 10 40 -1 47 -35 4 -24 33 -31 63 -15
18 9 28 9 45 0 35 -18 285 -21 440 -5 165 17 227 36 286 88 64 56 84 101 84
187 0 81 -14 116 -69 173 -42 45 -71 62 -123 71 -33 6 -68 36 -68 58 0 14 110
58 144 58 40 0 105 30 133 61 11 13 32 44 45 67 21 38 34 47 94 72 70 28 159
77 203 111 13 11 29 19 35 19 25 0 187 -290 210 -375 4 -14 -7 -36 -39 -75
-48 -58 -75 -126 -67 -168 3 -13 22 -41 43 -61 22 -20 39 -43 39 -52 0 -27 38
-67 74 -79 30 -10 37 -18 52 -68 10 -31 30 -86 46 -120 15 -35 28 -65 28 -67
0 -4 -145 -25 -160 -23 -8 2 -34 -17 -56 -42 l-42 -45 28 -33 c41 -49 136 -72
301 -72 149 0 241 22 291 71 17 16 38 29 47 29 63 0 349 127 468 208 174 118
269 229 309 361 18 59 18 104 -1 165 -33 107 -110 196 -213 244 -51 24 -68 27
-167 26 -162 -1 -222 -34 -323 -182 -34 -50 -68 -94 -74 -98 -20 -13 -48 38
-48 89 0 42 -5 54 -33 82 -27 27 -43 34 -93 40 -32 4 -63 8 -68 9 -9 2 -84
166 -93 202 -3 16 10 40 45 85 97 125 93 137 -34 115 -49 -9 -97 -16 -106 -16
-21 0 -132 140 -120 152 5 5 53 19 108 32 198 49 391 136 555 252 49 35 93 64
96 64 4 0 39 -20 79 -45 92 -58 198 -107 291 -135 40 -12 76 -27 81 -33 6 -7
24 -66 42 -132 40 -152 49 -175 67 -175 13 0 32 36 113 218 27 59 24 58 155
66 55 4 123 16 175 33 50 15 102 25 125 24 22 -2 81 -4 130 -5 76 -1 97 3 139
23 66 33 114 83 147 156 27 61 28 61 89 78 133 37 244 114 298 206 24 41 27
56 27 136 -1 102 -20 158 -80 227 -18 22 -37 54 -41 71 -16 75 -76 134 -159
156 -31 8 -45 20 -63 50 -80 142 -264 142 -385 1 -34 -41 -67 -114 -67 -151 0
-13 -15 -22 -53 -33 -130 -38 -198 -191 -155 -350 11 -40 10 -50 -10 -93 -12
-26 -27 -70 -33 -98 -6 -27 -19 -56 -27 -63 -27 -21 -248 -16 -350 9 -91 22
-238 89 -278 126 -24 22 -24 23 -7 58 16 34 18 35 73 35 171 0 321 76 412 208
55 80 107 267 108 389 0 45 3 52 21 55 31 4 46 32 30 52 -8 9 -73 48 -145 88
-259 141 -266 145 -266 179 0 16 11 55 24 87 13 31 29 75 36 97 19 60 75 139
125 177 51 38 53 56 8 79 -64 32 -85 52 -128 118 -49 76 -104 130 -154 150
-31 13 -33 17 -27 50 21 122 25 108 -55 211 -96 125 -298 328 -377 378 -83 54
-176 83 -282 91 -71 5 -94 11 -127 33 -121 80 -290 125 -521 138 -227 14 -334
27 -403 50 -32 11 -60 20 -62 20 -1 0 -27 -25 -57 -55z m185 -29 c39 -9 156
-20 260 -26 105 -6 228 -18 275 -26 86 -16 220 -62 255 -88 18 -13 16 -15 -25
-25 -104 -27 -154 -46 -216 -82 -86 -51 -222 -168 -224 -194 -1 -19 -2 -18
-10 3 -11 25 -32 29 -50 7 -15 -18 -5 -35 21 -35 10 0 19 -4 19 -10 0 -5 -10
-10 -23 -10 -13 0 -28 -5 -34 -11 -15 -15 -80 7 -93 32 -11 20 -45 26 -55 9
-3 -6 -16 -5 -33 2 -16 7 -99 12 -212 12 -164 1 -194 -2 -263 -22 -91 -26
-192 -70 -259 -113 -35 -23 -55 -29 -73 -25 -22 6 -24 10 -18 34 26 104 145
226 374 382 84 58 178 129 209 158 43 41 60 51 80 47 14 -2 57 -11 95 -19z
m1098 -221 c95 -29 169 -78 285 -190 133 -127 282 -307 282 -339 0 -34 -55
-239 -95 -356 -50 -144 -145 -334 -216 -429 -78 -105 -188 -206 -285 -261
l-79 -45 -215 -6 c-142 -4 -219 -3 -228 4 -18 14 -6 22 52 36 103 25 196 80
281 165 92 92 142 179 175 300 24 85 75 158 193 278 31 32 57 65 57 73 0 8
-16 26 -36 42 -20 15 -62 64 -93 108 -102 146 -187 209 -336 251 -91 25 -266
30 -353 10 -70 -16 -73 -16 -112 4 -22 11 -40 28 -40 36 0 28 88 141 148 190
73 60 196 118 292 138 88 18 249 14 323 -9z m-1021 -289 c118 -30 253 -86 253
-105 0 -8 -25 -29 -55 -47 -115 -67 -268 -227 -321 -336 -24 -50 -39 -61 -39
-30 -1 33 -39 127 -53 130 -27 6 -26 -26 4 -135 37 -132 84 -220 161 -296 32
-32 58 -61 58 -64 0 -9 -85 9 -155 34 -111 40 -184 83 -257 152 -75 70 -130
154 -202 311 -27 58 -68 138 -93 178 -51 83 -51 84 30 130 130 73 245 100 432
101 117 1 156 -3 237 -23z m667 -111 c117 -20 155 -59 171 -174 6 -43 5 -61
-7 -80 -12 -18 -13 -29 -4 -48 8 -18 8 -32 -2 -56 -13 -31 -14 -31 -21 -9 -9
26 -32 28 -59 5 -18 -17 -19 -17 -17 2 4 37 0 45 -23 45 -15 0 -36 16 -61 45
-88 105 -205 155 -370 155 l-101 0 55 35 c65 41 125 62 223 80 96 18 118 18
216 0z m-1448 -67 c48 -54 132 -213 131 -250 0 -15 3 -28 8 -28 4 0 10 -12 13
-27 3 -16 8 -38 12 -50 5 -17 3 -21 -12 -20 -10 1 -18 -5 -18 -13 0 -9 10 -15
25 -15 21 0 26 -6 28 -33 2 -18 -2 -40 -9 -49 -11 -12 -9 -18 11 -33 22 -17
23 -20 11 -44 -13 -23 -12 -28 2 -44 22 -24 21 -31 -3 -25 -16 4 -20 0 -20
-17 0 -19 4 -21 24 -16 32 8 41 -7 16 -29 -23 -21 -15 -49 12 -42 14 4 22 -2
29 -19 13 -36 12 -51 -3 -36 -7 7 -20 12 -29 12 -9 0 -20 7 -23 15 -4 12 -14
14 -39 10 -24 -5 -37 -2 -46 9 -8 9 -22 16 -33 16 -27 0 -123 66 -149 101 -33
47 -76 32 -45 -16 64 -97 221 -170 571 -265 109 -30 188 -54 330 -102 227 -78
238 -73 -169 -76 -277 -2 -385 1 -467 13 -207 29 -341 105 -508 288 -41 45
-121 129 -177 187 l-103 105 37 37 c20 20 61 83 91 140 121 230 220 333 343
357 77 15 119 4 159 -41z m1711 -31 c24 -18 64 -62 91 -97 26 -36 68 -91 94
-123 l46 -58 -30 -32 c-16 -18 -51 -59 -76 -93 -61 -81 -141 -152 -213 -191
-61 -33 -220 -83 -258 -83 -18 1 -17 4 14 28 194 150 291 319 290 509 -1 50
-7 105 -15 128 -18 49 -18 45 -1 45 8 0 34 -15 58 -33z m-560 -68 c95 -19 108
-27 108 -68 0 -57 -12 -68 -46 -44 -104 72 -234 69 -321 -7 -43 -38 -57 -35
-61 13 -3 32 1 39 35 61 69 45 190 64 285 45z m227 -124 c56 -62 131 -202 131
-245 0 -22 -16 -43 -73 -97 -116 -108 -191 -140 -378 -163 -108 -13 -124 -7
-264 93 -16 11 15 27 55 27 19 0 59 7 89 15 183 48 324 193 361 370 6 30 15
55 20 55 4 0 31 -25 59 -55z m-299 -1 c0 -21 -54 -74 -77 -74 -30 0 -93 20
-93 30 0 5 19 20 43 34 50 30 127 36 127 10z m105 -26 c19 -13 37 -28 39 -34
5 -14 -33 -94 -45 -94 -4 0 -24 11 -44 24 -20 14 -41 26 -47 28 -10 4 45 98
58 98 2 0 20 -10 39 -22z m1256 -8 c29 -18 66 -60 103 -115 32 -47 71 -93 87
-102 16 -10 29 -21 29 -26 0 -5 -17 -29 -39 -55 -46 -56 -61 -84 -100 -190
-59 -162 -149 -257 -326 -342 -133 -64 -177 -98 -205 -154 -25 -53 -44 -66
-93 -66 -29 0 -38 6 -55 34 -11 19 -39 45 -61 58 -23 13 -41 25 -41 28 0 3 33
23 73 45 48 26 105 72 168 135 160 158 257 328 351 617 29 90 56 163 59 163 3
0 26 -13 50 -30z m-1571 -52 c25 -10 82 -27 128 -39 83 -21 132 -49 132 -74 0
-40 -147 -118 -258 -137 -55 -9 -78 -9 -115 2 -38 10 -45 15 -36 26 7 8 21 11
35 8 14 -4 24 -2 24 5 0 12 -52 41 -74 41 -23 0 -32 41 -11 52 13 8 15 18 10
44 -8 43 2 62 20 38 7 -10 19 -15 29 -11 22 9 20 34 -4 42 -35 11 -21 22 28
21 26 -1 67 -9 92 -18z m704 -69 c-9 -15 -34 -10 -41 7 -4 11 1 22 13 31 16
12 19 11 26 -8 5 -11 6 -25 2 -30z m-1227 -205 c-9 -9 -28 6 -21 18 4 6 10 6
17 -1 6 -6 8 -13 4 -17z m33 -29 c0 -9 9 -15 23 -15 13 0 50 -14 83 -30 71
-37 212 -86 272 -96 40 -6 60 -24 27 -24 -24 0 -95 -38 -142 -76 -38 -31 -45
-33 -88 -27 -34 4 -49 11 -52 24 -4 14 -12 17 -35 12 -24 -5 -30 -2 -35 16 -7
25 -28 27 -42 4 -9 -17 -10 -17 -17 0 -3 10 -4 40 -1 67 4 33 2 50 -6 54 -9 3
-8 7 2 15 12 8 13 14 3 36 -15 32 -15 55 -2 55 6 0 10 -7 10 -15z m-52 -34 c3
-8 -1 -12 -9 -9 -7 2 -15 10 -17 17 -3 8 1 12 9 9 7 -2 15 -10 17 -17z m1382
-11 c0 -54 -107 -223 -184 -290 -81 -71 -213 -129 -327 -145 -41 -5 -61 0
-167 45 -66 27 -125 50 -131 50 -6 0 -11 5 -11 10 0 6 -9 10 -20 10 -28 0
-210 61 -210 71 0 15 58 49 84 49 15 0 26 6 26 14 0 28 217 66 385 66 158 0
407 57 500 115 49 30 55 30 55 5z m-2000 -275 c0 -9 9 -15 21 -15 11 0 34 -13
51 -30 16 -16 31 -30 34 -30 2 0 218 -106 479 -236 378 -189 484 -238 524
-242 l50 -4 6 -47 c26 -206 87 -352 181 -430 74 -61 120 -76 240 -79 98 -3
119 -1 189 23 97 32 188 96 235 165 71 102 60 99 101 28 65 -114 139 -313 139
-373 0 -28 -9 -37 -77 -81 -113 -74 -157 -97 -267 -144 -380 -162 -827 -162
-1188 0 -171 77 -308 175 -419 301 -112 127 -150 161 -213 190 -95 44 -168 59
-291 59 -177 0 -277 -38 -366 -139 -71 -81 -117 -97 -186 -64 -51 24 -75 67
-70 125 3 38 13 58 50 104 74 89 151 144 263 187 46 18 65 21 86 13 15 -5 30
-7 33 -4 3 3 19 54 36 114 42 151 37 140 53 123 7 -8 32 -60 56 -117 23 -56
47 -105 53 -109 5 -3 17 4 26 16 15 20 23 22 72 16 89 -11 209 -46 298 -87 54
-24 88 -35 94 -29 18 18 -1 39 -62 67 -33 16 -60 35 -60 42 -1 10 -9 12 -30 7
-21 -4 -30 -2 -34 10 -4 8 -18 20 -32 25 -26 10 -32 24 -15 35 18 11 10 35
-15 45 -27 10 -32 29 -13 48 10 10 8 19 -5 41 -10 17 -13 32 -8 35 5 4 12 2
16 -4 9 -15 35 -12 35 3 0 16 -52 67 -68 67 -7 0 -12 9 -12 21 0 16 4 19 20
14 16 -5 20 -2 20 14 0 12 -4 21 -9 21 -13 0 -34 57 -26 70 8 13 -12 86 -28
108 -7 8 -4 18 7 30 21 25 20 39 -4 47 -17 5 -19 12 -14 44 4 24 2 41 -5 45
-6 4 -11 15 -11 24 1 13 8 8 30 -16 17 -18 30 -39 30 -47z m2752 -78 c-4 -32
-7 -35 -44 -41 -23 -4 -43 -4 -47 -1 -8 9 77 87 87 81 5 -3 6 -20 4 -39z m105
-9 l38 -23 -39 -3 c-43 -4 -62 8 -53 32 8 20 9 20 54 -6z m155 -104 c49 -16
92 -50 83 -64 -3 -5 -30 3 -60 16 -30 14 -62 24 -71 22 -11 -2 -38 -65 -85
-198 -40 -112 -78 -202 -89 -211 -13 -11 -17 -24 -13 -38 5 -19 2 -22 -18 -19
-16 2 -25 -2 -27 -14 -2 -11 3 -18 12 -18 9 0 16 -7 16 -15 0 -9 -8 -14 -22
-12 -17 1 -24 -4 -26 -20 -2 -13 2 -23 8 -23 9 0 10 -11 5 -36 l-6 -36 33 7
c18 4 60 20 93 35 57 27 75 29 75 11 0 -14 -94 -59 -160 -76 -146 -38 -281 11
-356 127 -13 21 -24 42 -24 48 0 19 29 10 41 -12 15 -31 80 -98 94 -98 6 0 23
25 38 56 21 42 31 54 45 50 22 -7 47 8 37 24 -4 7 -17 9 -31 6 -22 -6 -23 -5
-12 26 6 18 17 40 24 49 8 8 14 25 14 37 0 29 21 72 35 72 7 0 10 9 8 23 -2
12 16 74 41 137 24 63 42 118 39 123 -3 5 -34 6 -69 2 -61 -6 -83 2 -53 21 43
26 303 25 381 -2z m-1657 -29 c102 -22 118 -30 85 -43 -145 -57 -168 -70 -212
-113 -30 -30 -51 -61 -58 -88 -19 -71 -42 -64 -397 113 l-308 153 405 -2 c342
-2 418 -5 485 -20z m621 -78 c59 -20 110 -55 96 -69 -5 -5 -31 2 -63 17 -30
13 -67 25 -84 25 l-30 0 -85 -243 c-56 -160 -93 -249 -108 -263 -14 -13 -20
-28 -16 -38 3 -9 3 -28 -1 -43 l-7 -28 -17 24 c-20 26 -41 21 -41 -10 0 -12 7
-19 19 -19 22 0 36 -16 22 -24 -15 -10 -59 15 -64 35 -7 27 -47 25 -47 -2 0
-12 8 -23 18 -26 10 -2 22 -14 27 -26 7 -15 17 -21 33 -19 15 2 22 -2 22 -13
0 -13 6 -15 33 -10 44 10 156 55 163 66 8 14 34 11 34 -4 0 -19 -87 -65 -155
-82 -73 -20 -190 -19 -248 1 -93 31 -233 194 -167 194 5 0 16 -13 25 -30 8
-16 31 -45 50 -64 30 -31 38 -34 75 -29 36 5 42 3 47 -16 7 -29 53 -30 53 -1
0 13 -7 20 -19 20 -13 0 -21 8 -23 23 -2 14 -11 23 -25 25 -24 4 -27 10 -17
36 6 15 7 15 19 0 6 -9 17 -14 23 -10 19 11 14 37 -7 43 -19 5 -19 7 5 71 14
37 32 77 40 89 8 12 14 30 14 40 0 10 27 87 60 171 33 85 57 158 54 164 -8 13
-92 3 -207 -24 -48 -12 -90 -19 -93 -15 -21 20 60 50 200 73 109 17 325 12
392 -9z m1853 -42 c56 -28 103 -105 66 -105 -46 0 -181 -101 -189 -141 l-5
-28 -63 24 c-35 13 -71 26 -80 29 -59 18 40 180 136 222 41 18 100 18 135 -1z
m-1561 -174 c24 -172 97 -314 190 -371 95 -58 92 -45 32 -145 -54 -89 -165
-218 -183 -212 -5 1 -25 50 -43 107 -19 58 -64 165 -100 238 l-66 134 15 56
c16 57 35 175 40 242 2 37 25 50 77 47 23 -2 25 -7 38 -96z m1772 14 c32 -16
70 -61 70 -81 0 -10 -16 -14 -57 -14 -74 0 -143 -32 -203 -94 -24 -25 -47 -46
-51 -46 -10 0 -59 78 -59 93 0 28 61 97 112 127 60 34 139 41 188 15z m-420
-134 c89 -45 150 -126 150 -197 0 -100 -80 -99 -194 3 -47 42 -75 51 -83 27
-4 -13 59 -78 110 -112 42 -28 45 -37 17 -52 -22 -12 -63 -84 -53 -94 15 -15
40 -4 57 25 46 79 137 90 254 33 84 -42 136 -42 178 -3 53 50 53 150 -1 185
-43 28 -59 0 -25 -43 27 -34 25 -69 -5 -99 -18 -18 -32 -23 -50 -19 -14 3 -36
7 -50 10 -14 3 -25 12 -25 20 0 8 -6 15 -14 15 -24 0 -36 25 -42 86 -6 55 -4
62 24 100 41 56 88 90 144 105 41 11 51 10 88 -6 86 -39 143 -134 144 -240 0
-72 -23 -121 -86 -181 -116 -112 -365 -174 -513 -129 -27 8 -52 12 -57 9 -17
-11 -7 -34 20 -48 45 -23 132 -129 132 -160 0 -3 -19 -16 -42 -28 -61 -31
-164 -31 -235 1 -58 26 -120 87 -152 150 -34 66 -25 251 13 251 6 0 34 -22 61
-50 50 -51 85 -64 85 -32 0 9 -23 39 -50 66 -108 103 -135 226 -75 334 41 75
91 104 170 100 38 -2 77 -12 105 -27z m-4426 -243 c-44 -49 -73 -112 -74 -157
0 -47 33 -112 72 -142 28 -21 44 -24 110 -24 l76 0 82 79 c56 54 84 76 91 69
21 -21 21 -87 0 -143 -43 -114 -122 -172 -247 -178 -64 -4 -79 -1 -137 27
-110 52 -169 144 -170 262 -1 55 4 74 29 120 32 57 100 112 158 128 48 13 50
3 10 -41z m3466 -260 c157 -78 217 -91 414 -93 l168 -1 13 -36 c16 -48 47 -97
84 -132 36 -35 38 -42 12 -55 -110 -59 -500 -49 -645 17 -22 11 -60 25 -83 31
-31 9 -43 17 -43 31 0 10 -3 25 -6 33 -4 10 1 15 13 14 25 -3 24 37 -2 41 -50
10 -83 53 -50 66 8 3 15 11 15 17 0 7 7 20 16 30 16 18 13 49 -5 49 -5 0 -17
-7 -25 -16 -15 -14 -16 -14 -16 2 0 18 29 57 39 52 3 -2 49 -24 101 -50z
m-3664 -169 c17 -5 53 -25 80 -45 56 -40 157 -74 218 -74 62 0 137 25 196 66
l52 36 54 -36 c92 -61 131 -148 104 -230 -13 -39 -59 -80 -103 -90 -40 -10
-55 3 -27 24 15 11 21 23 17 34 -8 20 -46 13 -97 -19 -45 -29 -66 -52 -84 -97
-13 -31 -13 -38 -1 -48 11 -9 18 -5 37 24 13 20 26 36 29 36 33 1 50 -119 24
-173 -48 -102 -200 -103 -255 -2 -9 17 -25 32 -35 34 -16 3 -17 -2 -11 -38 l6
-41 -47 0 c-114 1 -193 76 -215 205 -2 12 -11 20 -23 20 -15 0 -21 -8 -23 -32
-4 -38 -4 -38 -40 -19 -133 70 -151 272 -37 436 15 22 34 41 43 43 22 5 99 -2
138 -14z m1187 -36 c4 -3 1 -13 -5 -21 -11 -13 -8 -14 20 -7 29 6 34 4 39 -14
4 -15 11 -19 27 -15 11 2 30 -2 41 -10 19 -14 18 -15 -16 -21 -43 -8 -213 40
-203 57 7 11 62 37 80 38 6 0 14 -3 17 -7z m-108 -93 c39 -20 39 -20 8 -15
-18 2 -33 0 -35 -6 -3 -10 -71 -38 -90 -39 -19 0 -5 31 25 54 38 31 41 31 92
6z m298 -64 c6 -8 10 -7 14 2 6 15 79 16 88 1 4 -6 -3 -13 -14 -16 -15 -4 -20
-11 -16 -23 3 -11 -4 -29 -18 -46 -13 -16 -29 -39 -35 -50 -7 -14 -25 -24 -51
-28 -44 -7 -180 9 -194 23 -13 13 43 83 61 76 9 -3 12 0 9 9 -9 24 30 64 66
68 43 4 80 -3 90 -16z m-213 0 c0 -3 -13 -25 -29 -49 -43 -62 -69 -72 -139
-50 -32 9 -61 21 -67 25 -12 11 12 28 41 28 11 0 35 7 53 16 18 9 41 14 53 11
11 -3 27 1 35 9 13 13 53 20 53 10z m500 -33 c25 -8 52 -17 60 -20 9 -3 -4
-15 -37 -34 -61 -36 -210 -76 -225 -61 -16 16 1 34 24 26 17 -5 19 -3 13 14
-4 14 3 35 20 62 25 40 28 42 63 35 20 -3 57 -13 82 -22z m2280 -82 c0 -5 -9
-31 -21 -58 l-21 -48 -13 25 c-18 31 -19 77 -2 83 21 9 57 7 57 -2z m-1425
-111 c27 0 39 -8 66 -41 28 -35 31 -44 20 -61 -26 -41 -1 -45 152 -19 34 6 47
5 47 -4 0 -6 -25 -45 -55 -85 -30 -40 -55 -79 -55 -87 0 -8 12 -13 29 -13 26
0 31 -7 65 -80 36 -79 38 -100 11 -100 -7 0 -57 -22 -111 -49 -54 -27 -102
-47 -106 -45 -3 2 -12 21 -19 42 -23 72 -102 218 -175 324 -41 58 -74 109 -74
112 0 3 15 5 33 4 26 -3 31 0 29 16 -5 30 7 66 23 66 8 0 15 -7 15 -16 0 -23
35 -13 36 11 2 34 4 37 20 31 9 -3 31 -6 49 -6z m-347 -53 c8 -6 12 -21 9 -34
-4 -19 0 -23 23 -23 16 0 37 -11 54 -29 23 -24 26 -32 17 -50 -35 -65 -270
-172 -413 -188 -47 -5 -62 -2 -91 16 -85 52 -88 170 -5 218 48 28 141 49 146
34 3 -8 9 -5 19 8 8 12 22 21 31 21 9 0 26 7 36 15 11 8 30 15 43 15 12 0 27
9 33 19 10 19 12 19 48 4 20 -8 43 -20 50 -26z m-359 20 c34 -17 27 -30 -23
-47 -25 -8 -57 -25 -71 -38 -27 -23 -64 -94 -65 -122 0 -36 23 -93 51 -125 52
-59 127 -76 217 -49 36 10 27 -19 -18 -60 -36 -32 -46 -36 -94 -36 -36 0 -67
7 -97 23 -24 13 -50 22 -56 20 -21 -7 -15 -31 13 -49 34 -23 17 -38 -35 -29
-107 18 -202 151 -200 280 1 78 39 159 90 189 35 21 45 7 24 -33 -16 -33 -20
-97 -6 -105 13 -8 28 13 40 59 28 101 148 165 230 122z m-511 -114 c-50 -97
-70 -199 -71 -353 -1 -98 4 -142 21 -206 48 -182 147 -316 280 -381 55 -28 70
-39 55 -41 -12 -2 -43 4 -69 13 -137 46 -253 201 -305 405 -31 126 -23 368 17
502 8 27 44 68 61 68 8 0 13 -3 11 -7z m2299 -320 c7 -9 19 -12 33 -8 23 7 92
-28 125 -65 l20 -23 -23 8 c-17 5 -27 2 -36 -11 -15 -20 -36 -11 -36 17 0 25
-10 24 -55 -7 -34 -23 -41 -24 -68 -13 -27 11 -32 10 -49 -11 -24 -30 -31 -22
-16 18 11 29 16 32 52 29 24 -1 41 3 43 11 3 6 -1 12 -9 12 -7 0 -31 12 -53
27 -33 22 -36 27 -21 33 28 9 79 0 93 -17z m-177 -13 c0 -5 -7 -10 -16 -10 -8
0 -12 5 -9 10 3 6 10 10 16 10 5 0 9 -4 9 -10z m50 -35 c0 -8 -4 -15 -9 -15
-13 0 -22 16 -14 24 11 11 23 6 23 -9z m-493 -15 c36 -13 60 -55 42 -76 -6 -8
-24 -14 -39 -14 -56 0 -90 -12 -90 -31 0 -17 8 -19 68 -19 70 0 92 -10 92 -41
0 -17 -45 -39 -81 -39 -9 0 -63 -23 -118 -51 -79 -39 -117 -66 -171 -120 -72
-71 -89 -80 -110 -54 -20 25 -14 63 16 101 69 87 65 80 48 94 -13 11 -23 5
-69 -45 -46 -49 -57 -56 -70 -45 -8 7 -15 28 -15 49 0 149 338 346 497 291z
m423 -24 c0 -3 -4 -8 -10 -11 -5 -3 -10 -1 -10 4 0 6 5 11 10 11 6 0 10 -2 10
-4z m155 -66 c3 -5 2 -10 -4 -10 -5 0 -13 5 -16 10 -3 6 -2 10 4 10 5 0 13 -4
16 -10z m279 -52 c16 -26 2 -31 -53 -18 -96 23 -273 -34 -373 -119 -23 -19
-92 -103 -154 -185 -62 -83 -141 -179 -176 -213 -62 -62 -206 -153 -240 -153
-40 0 -13 31 60 70 113 59 177 122 321 313 156 208 216 258 371 308 74 25 228
22 244 -3z m-2028 -94 c17 -13 39 -39 49 -58 17 -32 18 -37 4 -53 -9 -10 -19
-26 -22 -35 -11 -30 -26 -20 -29 19 -3 41 -26 57 -35 24 -3 -12 -12 -21 -20
-21 -11 0 -13 7 -7 33 13 57 11 72 -13 75 -15 2 -23 10 -23 22 0 36 43 34 96
-6z m2030 5 c8 -7 14 -24 12 -38 l-3 -26 -140 -8 c-158 -8 -221 -6 -219 7 3
14 89 57 143 73 54 15 185 10 207 -8z m-2148 -48 c17 -7 32 -19 32 -27 0 -18
-2 -18 -45 3 -19 9 -35 23 -35 31 0 7 3 12 8 10 4 -3 22 -10 40 -17z m2132
-79 c0 -11 -57 -97 -73 -110 -7 -5 -105 -12 -219 -14 -161 -4 -208 -3 -208 7
0 7 18 35 40 63 37 46 45 51 88 55 97 7 372 7 372 -1z m-1975 -92 c3 -5 1 -10
-4 -10 -6 0 -11 5 -11 10 0 6 2 10 4 10 3 0 8 -4 11 -10z m1825 -87 c0 -5 -24
-25 -52 -46 l-53 -38 -147 3 c-80 2 -150 6 -153 10 -10 9 5 68 16 68 6 0 9
-10 7 -22 -5 -35 25 -34 39 2 l11 30 166 0 c91 0 166 -3 166 -7z m-210 -143
c0 -5 -9 -10 -20 -10 -11 0 -23 -7 -26 -15 -6 -15 -55 -21 -67 -9 -3 4 -2 15
4 25 7 15 21 19 59 19 28 0 50 -4 50 -10z"/>
<path d="M2620 4491 c0 -6 5 -13 10 -16 6 -3 10 1 10 9 0 9 -4 16 -10 16 -5 0
-10 -4 -10 -9z"/>
<path d="M2530 4480 c0 -5 5 -10 10 -10 6 0 10 5 10 10 0 6 -4 10 -10 10 -5 0
-10 -4 -10 -10z"/>
<path d="M2460 4450 c0 -5 5 -10 10 -10 6 0 10 5 10 10 0 6 -4 10 -10 10 -5 0
-10 -4 -10 -10z"/>
<path d="M2504 4415 c-8 -19 3 -35 26 -35 19 0 30 17 23 38 -6 17 -42 15 -49
-3z"/>
<path d="M3106 3972 c-3 -6 -1 -14 5 -17 15 -10 25 3 12 16 -7 7 -13 7 -17 1z"/>
<path d="M3150 3955 c-15 -18 -5 -35 20 -35 23 0 32 13 24 34 -8 20 -28 21
-44 1z"/>
<path d="M1690 3830 c0 -5 5 -10 10 -10 6 0 10 5 10 10 0 6 -4 10 -10 10 -5 0
-10 -4 -10 -10z"/>
<path d="M1545 3820 c3 -5 8 -10 11 -10 2 0 4 5 4 10 0 6 -5 10 -11 10 -5 0
-7 -4 -4 -10z"/>
<path d="M1618 3783 c7 -3 16 -2 19 1 4 3 -2 6 -13 5 -11 0 -14 -3 -6 -6z"/>
<path d="M1686 3761 c-4 -5 -2 -12 3 -15 5 -4 12 -2 15 3 4 5 2 12 -3 15 -5 4
-12 2 -15 -3z"/>
<path d="M1561 3744 c0 -11 3 -14 6 -6 3 7 2 16 -1 19 -3 4 -6 -2 -5 -13z"/>
<path d="M1715 3720 c-4 -6 -3 -14 0 -20 9 -15 35 -12 35 4 0 17 -27 29 -35
16z"/>
<path d="M1630 3710 c0 -5 5 -10 11 -10 5 0 7 5 4 10 -3 6 -8 10 -11 10 -2 0
-4 -4 -4 -10z"/>
<path d="M1560 3680 c0 -5 5 -10 10 -10 6 0 10 5 10 10 0 6 -4 10 -10 10 -5 0
-10 -4 -10 -10z"/>
<path d="M1680 3645 c0 -8 7 -15 15 -15 8 0 15 7 15 15 0 8 -7 15 -15 15 -8 0
-15 -7 -15 -15z"/>
<path d="M1754 3636 c-4 -10 -2 -22 4 -28 8 -8 13 -7 18 6 4 10 2 22 -4 28 -8
8 -13 7 -18 -6z"/>
<path d="M1610 3624 c0 -8 5 -12 10 -9 6 3 10 10 10 16 0 5 -4 9 -10 9 -5 0
-10 -7 -10 -16z"/>
<path d="M1680 3569 c0 -5 5 -7 10 -4 6 3 10 8 10 11 0 2 -4 4 -10 4 -5 0 -10
-5 -10 -11z"/>
<path d="M1605 3551 c-6 -11 9 -23 19 -14 9 9 7 23 -3 23 -6 0 -12 -4 -16 -9z"/>
<path d="M1717 3544 c-16 -16 -6 -35 16 -32 12 2 22 10 22 18 0 16 -26 25 -38
14z"/>
<path d="M1660 3486 c0 -9 7 -16 16 -16 9 0 14 5 12 12 -6 18 -28 21 -28 4z"/>
<path d="M1736 3481 c-3 -5 1 -15 10 -22 13 -10 17 -10 24 1 5 8 6 18 4 22 -7
11 -31 10 -38 -1z"/>
<path d="M2420 3849 c0 -5 5 -7 10 -4 6 3 10 8 10 11 0 2 -4 4 -10 4 -5 0 -10
-5 -10 -11z"/>
<path d="M2400 3801 c0 -6 5 -13 10 -16 6 -3 10 1 10 9 0 9 -4 16 -10 16 -5 0
-10 -4 -10 -9z"/>
<path d="M2333 3754 c-9 -23 19 -37 37 -18 13 13 13 16 0 24 -21 14 -30 12
-37 -6z"/>
<path d="M2004 3499 c-8 -14 11 -33 25 -25 6 4 11 14 11 22 0 16 -26 19 -36 3z"/>
<path d="M2085 3460 c3 -5 8 -10 11 -10 2 0 4 5 4 10 0 6 -5 10 -11 10 -5 0
-7 -4 -4 -10z"/>
<path d="M2010 3430 c0 -11 7 -20 15 -20 8 0 15 9 15 20 0 11 -7 20 -15 20 -8
0 -15 -9 -15 -20z"/>
<path d="M2220 3430 c0 -5 5 -10 11 -10 5 0 7 5 4 10 -3 6 -8 10 -11 10 -2 0
-4 -4 -4 -10z"/>
<path d="M2080 3399 c0 -5 5 -7 10 -4 6 3 10 8 10 11 0 2 -4 4 -10 4 -5 0 -10
-5 -10 -11z"/>
<path d="M1325 3120 c-4 -7 3 -22 19 -38 31 -31 36 -11 7 27 -13 17 -20 20
-26 11z"/>
<path d="M1340 3000 c0 -5 5 -10 11 -10 5 0 7 5 4 10 -3 6 -8 10 -11 10 -2 0
-4 -4 -4 -10z"/>
<path d="M1440 2769 c0 -5 5 -7 10 -4 6 3 10 8 10 11 0 2 -4 4 -10 4 -5 0 -10
-5 -10 -11z"/>
<path d="M1380 2715 c0 -8 9 -15 20 -15 11 0 20 7 20 15 0 8 -9 15 -20 15 -11
0 -20 -7 -20 -15z"/>
<path d="M2217 2483 c-4 -3 -7 -25 -7 -49 0 -31 -9 -55 -32 -90 -57 -85 -155
-115 -248 -78 -30 12 -44 14 -52 6 -18 -18 16 -48 67 -61 40 -10 47 -17 77
-73 91 -174 279 -280 469 -265 125 10 319 82 319 118 0 17 -9 19 -96 19 -220
0 -368 82 -447 249 -29 62 -30 65 -18 127 7 34 10 72 6 83 -6 21 -25 28 -38
14z m10 -253 l22 -51 -62 -45 c-34 -24 -66 -43 -72 -41 -15 5 -64 80 -65 98 0
11 11 19 33 23 19 3 51 20 73 36 21 16 41 30 45 30 3 0 15 -23 26 -50z m112
-148 l53 -48 -34 -44 c-26 -34 -41 -44 -59 -42 -34 3 -134 74 -134 94 0 17 90
88 110 88 5 0 34 -22 64 -48z m171 -92 c36 -11 80 -20 98 -20 43 0 41 -17 -5
-30 -53 -16 -209 -25 -216 -13 -6 10 38 83 51 83 4 0 36 -9 72 -20z"/>
<path d="M2213 1824 c-8 -21 21 -49 66 -62 74 -23 151 -10 151 23 0 12 -14 15
-62 15 -35 0 -74 6 -88 13 -48 25 -61 27 -67 11z"/>
<path d="M4125 2720 c3 -5 8 -10 11 -10 2 0 4 5 4 10 0 6 -5 10 -11 10 -5 0
-7 -4 -4 -10z"/>
<path d="M4015 2690 c3 -5 8 -10 11 -10 2 0 4 5 4 10 0 6 -5 10 -11 10 -5 0
-7 -4 -4 -10z"/>
<path d="M4070 2670 c0 -5 5 -10 10 -10 6 0 10 5 10 10 0 6 -4 10 -10 10 -5 0
-10 -4 -10 -10z"/>
<path d="M4022 2621 c2 -7 7 -12 11 -12 12 1 9 15 -3 20 -7 2 -11 -2 -8 -8z"/>
<path d="M3950 2611 c0 -6 5 -13 10 -16 6 -3 10 1 10 9 0 9 -4 16 -10 16 -5 0
-10 -4 -10 -9z"/>
<path d="M3986 2565 c-6 -17 16 -31 33 -21 13 9 2 36 -14 36 -7 0 -16 -7 -19
-15z"/>
<path d="M3950 2501 c0 -27 15 -34 34 -15 19 19 12 34 -15 34 -12 0 -19 -7
-19 -19z"/>
<path d="M3893 2495 c-16 -13 -17 -15 -2 -30 19 -19 49 -10 49 15 0 24 -24 32
-47 15z"/>
<path d="M3947 2446 c-8 -20 13 -44 46 -52 32 -7 34 -1 6 37 -22 31 -44 37
-52 15z"/>
<path d="M2935 2520 c-3 -5 -1 -10 4 -10 6 0 11 5 11 10 0 6 -2 10 -4 10 -3 0
-8 -4 -11 -10z"/>
<path d="M2875 2501 c-7 -12 12 -24 25 -16 11 7 4 25 -10 25 -5 0 -11 -4 -15
-9z"/>
<path d="M3004 2479 c-3 -6 -2 -15 2 -19 12 -12 38 5 30 19 -9 14 -23 14 -32
0z"/>
<path d="M2955 2471 c-7 -12 12 -24 25 -16 11 7 4 25 -10 25 -5 0 -11 -4 -15
-9z"/>
<path d="M2900 2435 c0 -8 7 -15 15 -15 8 0 15 7 15 15 0 8 -7 15 -15 15 -8 0
-15 -7 -15 -15z"/>
<path d="M2844 2429 c-10 -17 13 -36 27 -22 12 12 4 33 -11 33 -5 0 -12 -5
-16 -11z"/>
<path d="M2936 2391 c-7 -11 18 -33 27 -24 4 3 7 12 7 20 0 15 -26 18 -34 4z"/>
<path d="M2883 2383 c-20 -7 -15 -33 6 -33 11 0 22 4 25 9 8 12 -16 29 -31 24z"/>
<path d="M3892 2021 c4 -13 18 -16 19 -4 0 4 -5 9 -11 12 -7 2 -11 -2 -8 -8z"/>
<path d="M3940 1875 c0 -8 7 -15 15 -15 8 0 15 7 15 15 0 8 -7 15 -15 15 -8 0
-15 -7 -15 -15z"/>
<path d="M1880 1690 c0 -5 5 -10 11 -10 5 0 7 5 4 10 -3 6 -8 10 -11 10 -2 0
-4 -4 -4 -10z"/>
<path d="M2437 1463 c-4 -3 -7 -12 -7 -20 0 -15 26 -18 34 -4 7 11 -18 33 -27
24z"/>
<path d="M2365 1430 c-3 -5 -1 -10 4 -10 6 0 11 5 11 10 0 6 -2 10 -4 10 -3 0
-8 -4 -11 -10z"/>
<path d="M2420 1379 c0 -5 5 -7 10 -4 6 3 10 8 10 11 0 2 -4 4 -10 4 -5 0 -10
-5 -10 -11z"/>
<path d="M2473 1368 c2 -7 10 -13 17 -13 7 0 15 6 18 13 2 7 -5 12 -18 12 -13
0 -20 -5 -17 -12z"/>
<path d="M2527 1344 c-9 -10 2 -24 19 -24 8 0 14 7 14 15 0 15 -21 21 -33 9z"/>
<path d="M3680 426 c0 -9 7 -16 16 -16 17 0 14 22 -4 28 -7 2 -12 -3 -12 -12z"/>
<path d="M1160 460 c0 -15 5 -20 18 -18 9 2 17 10 17 18 0 8 -8 16 -17 18 -13
2 -18 -3 -18 -18z"/>
<path d="M1174 394 c3 -9 6 -18 6 -20 0 -11 29 -2 33 10 7 18 -1 26 -26 26
-13 0 -17 -5 -13 -16z"/>
<path d="M1280 351 c0 -11 26 -22 34 -14 3 3 3 10 0 14 -7 12 -34 11 -34 0z"/>
</g>
</svg>
